<svg xmlns="http://www.w3.org/2000/svg" xmlns:xlink="http://www.w3.org/1999/xlink" width="426.673" height="741.589"><symbol id="sprite-folder" viewBox="0 0 384.006 320.03"><path d="M366.073 96.03h-348.2c-17.7 0-18.6 9.2-17.6 20.5l13 183c.9 11.2 3.5 20.5 21.1 20.5h316.2c18 0 20.1-9.2 21.1-20.5l12.1-185.3c.9-11.2 0-18.2-17.7-18.2zm-3.9-48.7c-.5-12.4-4.5-15.3-15.1-15.3h-143.2c-21.8 0-24.4.3-40.9-17.4-13.7-14.8-8.3-14.6-36.6-14.6h-75.3c-17.4 0-23.6-1.5-25.2 16.6-1.5 16.7-5 57.2-5.5 63.4h343.4z"/></symbol><symbol id="sprite-file" viewBox="0 0 420 384"><path d="M398.6 169.2c-.9-2.2-2-4.3-3.5-6.1l-83.8-91.7c-1.9-2.1-4.2-3.6-6.7-4.9-2.9-1.5-6.1-2.1-9.5-2.1H135.2c-12.4 0-22.7 10.6-22.7 23.9v335.2c0 13.4 10.3 24.9 22.7 24.9h243.1c12.4 0 22.2-11.5 22.2-24.9V179.4c0-3.6-.5-7.1-1.9-10.2zm-238.1 9.4c0-1.5 1.8-2.1 3.4-2.1h70.8c1.6 0 2.8.6 2.8 2.1v10.8c0 1.4-1.1 3.1-2.8 3.1h-70.8c-1.6 0-3.4-1.7-3.4-3.1zm0 128c0-1.5 1.8-2.1 3.4-2.1h122.2c1.6 0 2.4.6 2.4 2.1v10.8c0 1.4-.7 3.1-2.4 3.1H163.9c-1.6 0-3.4-1.7-3.4-3.1zm160 74.8c0 1.4-.7 3.1-2.4 3.1H163.9c-1.6 0-3.4-1.7-3.4-3.1v-10.8c0-1.5 1.8-2.1 3.4-2.1h154.2c1.6 0 2.4.6 2.4 2.1zm32-128c0 1.4-.7 3.1-2.4 3.1H163.9c-1.6 0-3.4-1.7-3.4-3.1v-10.8c0-1.5 1.8-2.1 3.4-2.1h186.2c1.6 0 2.4.6 2.4 2.1zm-46.9-75.9c-5.6 0-11.1-5.2-11.1-11.3v-66l71.2 77.3z" transform="translate(-46.5 -64.4)"/></symbol><use xlink:href="#sprite-file" width="420" height="384"/><use xlink:href="#sprite-folder" y="386" width="426.673" height="355.589"/></svg>