<svg xmlns="http://www.w3.org/2000/svg" xmlns:xlink="http://www.w3.org/1999/xlink" width="512" height="2712.259"><symbol id="sprite-upload" viewBox="0 0 512 512"><path d="M320 64c-40.938 0-78.531 19.344-102.34 51.062a108.88 108.88 0 0 0-25.656-3.063c-61.75 0-112 50.25-112 112 0 1.564.03 3.095.094 4.626C33.817 242.375.004 285.313.004 336.005c0 61.75 50.25 112 112 112h272c70.594 0 128-57.406 128-128 0-46.656-25.656-88.812-65.156-111.12a121.542 121.542 0 0 0 1.156-16.875c0-70.563-57.406-128-128-128zm0 32c53.031 0 96 42.969 96 96 0 12.625-2.594 24.624-7.031 35.688 40.844 11.062 71.03 48 71.03 92.312 0 53.031-42.968 96-96 96H112c-44.187 0-80-35.813-80-80s35.814-80 80-80c2.439 0 4.75.5 7.126.719-4.5-10-7.125-21.031-7.125-32.72 0-44.187 35.813-80 80-80 14.438 0 27.813 4.125 39.5 10.813C246 120.249 280.156 96 320 96zm-64 96l-96 96h64v96h64v-96h64z"/></symbol><symbol id="sprite-trash" viewBox="0 0 512 512"><path d="M459.23 60.687h-71.955c-1.121-17.642-15.631-31.657-33.553-31.657h-192.06c-17.921 0-32.441 14.015-33.553 31.657H64.572c-18.647 0-33.767 15.12-33.767 33.768v8.442c0 18.648 15.12 33.768 33.767 33.768h21.04v342.11c0 13.784 11.179 24.963 24.963 24.963h309c13.784 0 24.964-11.179 24.964-24.963v-342.11h14.691c18.663 0 33.768-15.12 33.768-33.768v-8.442c-.001-18.648-15.105-33.768-33.769-33.768zm-262.56 383.04c0 12.58-10.197 22.803-22.802 22.803-12.598 0-22.803-10.223-22.803-22.803v-284.9c0-12.597 10.205-22.802 22.803-22.802 12.605 0 22.802 10.206 22.802 22.802v284.9zm91.213 0c0 12.58-10.205 22.803-22.803 22.803s-22.803-10.223-22.803-22.803v-284.9c0-12.597 10.205-22.802 22.803-22.802s22.803 10.206 22.803 22.802v284.9zm91.212 0c0 12.58-10.205 22.803-22.803 22.803-12.613 0-22.803-10.223-22.803-22.803v-284.9c0-12.597 10.189-22.802 22.803-22.802 12.598 0 22.803 10.206 22.803 22.802v284.9z"/></symbol><symbol id="sprite-refresh" viewBox="0 0 512 512"><path d="M479.971 32.18c-21.72 21.211-42.89 43-64.52 64.301-1.05 1.23-2.26-.16-3.09-.85-24.511-23.98-54.58-42.281-87.221-52.84-37.6-12.16-78.449-14.07-117.029-5.59C139.441 51.871 79.3 101.26 51.671 165.81l.093.039a33.301 33.301 0 0 0-3.605 15.1c0 18.475 14.977 33.451 33.451 33.451 15.831 0 29.084-11.002 32.555-25.773 19.757-41.979 58.832-74.445 103.967-85.527 52.2-13.17 111.37 1.33 149.4 40.041-22.03 21.83-44.391 43.34-66.33 65.26 59.52-.32 119.06-.141 178.59-.09.499-58.7.139-117.42.179-176.131zM431.609 297.5c-14.62 0-27.041 9.383-31.591 22.453l-.027-.012c-19.11 42.59-57.57 76.219-102.84 88.18-52.799 14.311-113.45.299-152.179-39.051 21.92-21.76 44.369-43.01 66.189-64.869-59.7.049-119.41.029-179.11.01-.14 58.6-.159 117.189.011 175.789 21.92-21.91 43.75-43.91 65.79-65.699 14.109 13.789 29.76 26.07 46.92 35.869 54.739 31.971 123.399 38.602 183.299 17.891 57.477-19.297 106.073-63.178 131.212-118.318a33.288 33.288 0 0 0 5.776-18.793c.001-18.473-14.976-33.45-33.45-33.45z"/></symbol><symbol id="sprite-newfolder" viewBox="0 0 384.01 384.01"><path d="M93.419 31.863c-17.801.042-35.61.236-53.399.12-20.536 1.602-12.823 28.12-16.414 42.316 2.262 10.988-9.653 35.014 1.767 37.635h338.4l-1.6-32.7c2.164-15.598-14.08-16.15-25.098-15.3-49.671-.261-99.378.555-149.02-.47-18.963-1.748-25.389-24.222-41.273-30.814-17.763-.72-35.557-.83-53.358-.787zm274.33 95.977c-.565.012-1.124.043-1.675.093-117.11.07-234.22-.14-351.33.107-16.7-.586-15.383 17.67-13.838 29.37 4.318 59.37 8.236 118.78 12.806 178.12.397 16.128 17.504 17.288 29.654 16.402 103.46-.07 206.93.142 310.39-.105 15.685.812 18.635-16.142 18.429-28.375 3.922-60.439 7.941-120.87 11.802-181.32 1.825-10.254-7.778-14.471-16.247-14.296zm-96.977 12.707h32.235v49.052h49.052v32.235h-49.052v49.052h-32.235v-49.052H221.72v-32.235h49.052z"/></symbol><symbol id="sprite-folder" viewBox="0 0 384.006 320.03"><path d="M366.073 96.03h-348.2c-17.7 0-18.6 9.2-17.6 20.5l13 183c.9 11.2 3.5 20.5 21.1 20.5h316.2c18 0 20.1-9.2 21.1-20.5l12.1-185.3c.9-11.2 0-18.2-17.7-18.2zm-3.9-48.7c-.5-12.4-4.5-15.3-15.1-15.3h-143.2c-21.8 0-24.4.3-40.9-17.4-13.7-14.8-8.3-14.6-36.6-14.6h-75.3c-17.4 0-23.6-1.5-25.2 16.6-1.5 16.7-5 57.2-5.5 63.4h343.4z"/></symbol><symbol id="sprite-file" viewBox="0 0 420 384"><path d="M398.6 169.2c-.9-2.2-2-4.3-3.5-6.1l-83.8-91.7c-1.9-2.1-4.2-3.6-6.7-4.9-2.9-1.5-6.1-2.1-9.5-2.1H135.2c-12.4 0-22.7 10.6-22.7 23.9v335.2c0 13.4 10.3 24.9 22.7 24.9h243.1c12.4 0 22.2-11.5 22.2-24.9V179.4c0-3.6-.5-7.1-1.9-10.2zm-238.1 9.4c0-1.5 1.8-2.1 3.4-2.1h70.8c1.6 0 2.8.6 2.8 2.1v10.8c0 1.4-1.1 3.1-2.8 3.1h-70.8c-1.6 0-3.4-1.7-3.4-3.1zm0 128c0-1.5 1.8-2.1 3.4-2.1h122.2c1.6 0 2.4.6 2.4 2.1v10.8c0 1.4-.7 3.1-2.4 3.1H163.9c-1.6 0-3.4-1.7-3.4-3.1zm160 74.8c0 1.4-.7 3.1-2.4 3.1H163.9c-1.6 0-3.4-1.7-3.4-3.1v-10.8c0-1.5 1.8-2.1 3.4-2.1h154.2c1.6 0 2.4.6 2.4 2.1zm32-128c0 1.4-.7 3.1-2.4 3.1H163.9c-1.6 0-3.4-1.7-3.4-3.1v-10.8c0-1.5 1.8-2.1 3.4-2.1h186.2c1.6 0 2.4.6 2.4 2.1zm-46.9-75.9c-5.6 0-11.1-5.2-11.1-11.3v-66l71.2 77.3z" transform="translate(-46.5 -64.4)"/></symbol><use xlink:href="#sprite-file" width="420" height="384"/><use xlink:href="#sprite-folder" y="386" width="426.673" height="355.589"/><use xlink:href="#sprite-newfolder" y="743.589" width="426.67" height="426.67"/><use xlink:href="#sprite-refresh" y="1172.259" width="512" height="512"/><use xlink:href="#sprite-trash" y="1686.259" width="512" height="512"/><use xlink:href="#sprite-upload" y="2200.259" width="512" height="512"/></svg>