<svg width="420" height="384" version="1.1" viewBox="0 0 420 384" xml:space="preserve" xmlns="http://www.w3.org/2000/svg">
<path d="m88.699 0c-12.4 0-22.699 10.6-22.699 23.9v335.2c0 13.4 10.299 24.9 22.699 24.9h243.1c12.4 0 22.199-11.5 22.199-24.9v-244.1c0-3.6-0.50039-7.0992-1.9004-10.199-0.9-2.2-2-4.3016-3.5-6.1016l-83.799-91.699c-1.9-2.1-4.2012-3.6004-6.7012-4.9004-2.9-1.5-6.1-2.0996-9.5-2.0996h-159.9zm159.3 35.801 71.199 77.299h-60.1c-5.6 0-11.1-5.1988-11.1-11.299v-66zm-35.113 108.37c2.1547 0 4.0177 0.98365 5.5957 2.9414 1.5728 1.9625 2.3613 4.2865 2.3613 6.9707v131.37c0 2.6868-0.78858 5.0108-2.3613 6.9707-1.5755 1.9599-3.4394 2.9414-5.5938 2.9414-2.1568 0-4.0207-0.97845-5.5938-2.9414l-41.398-33.008h-32.568c-2.1565 0-4.0226-0.97845-5.5957-2.9414-1.5734-1.9599-2.3613-4.2839-2.3613-6.9707v-59.473c0-2.6842 0.78545-5.0062 2.3613-6.9688 1.5731-1.9599 3.4389-2.9414 5.5957-2.9414h32.568l41.395-33.01c1.5734-1.9604 3.4392-2.9414 5.5957-2.9414zm39.977 1.877c1.075 0 2.1534 0.26092 3.2305 0.77539 11.601 6.093 20.925 15.821 27.969 29.195 7.0431 13.374 10.566 27.956 10.566 43.754 0 15.799-3.5233 30.382-10.566 43.754-7.0445 13.371-16.368 23.103-27.969 29.193-1.0791 0.51706-2.1136 0.77344-3.1074 0.77344-2.2379 0-4.1453-0.97887-5.7188-2.9414-1.5728-1.9599-2.3613-4.2816-2.3613-6.9688 0-4.0265 1.6155-7.0741 4.8477-9.1406 4.6414-2.9949 7.7905-5.2635 9.4492-6.8125 6.132-5.5755 10.917-12.572 14.357-20.988 3.4388-8.4166 5.1582-17.372 5.1582-26.873 0-9.4988-1.7194-18.455-5.1582-26.871-3.4405-8.4161-8.2261-15.409-14.357-20.984-1.6604-1.549-4.8078-3.8169-9.4492-6.8144-3.2321-2.0635-4.8477-5.1122-4.8477-9.1387 0-2.6842 0.78579-5.0077 2.3613-6.9707 1.5734-1.9599 3.4392-2.9414 5.5957-2.9414zm-12.434 36.553c1.243 0 2.277 0.25897 3.1074 0.77344 5.8019 2.7878 10.463 7.5901 13.986 14.404 3.5216 6.8142 5.2812 14.146 5.2812 21.992 0 7.8488-1.7597 15.153-5.2812 21.914-3.5236 6.764-8.1848 11.592-13.986 14.486-0.83038 0.51707-1.8641 0.77343-3.1074 0.77343-2.1544 0-4.0203-0.9506-5.5938-2.8633-1.5734-1.9101-2.3594-4.2587-2.3594-7.0469 0-2.1697 0.49761-4.0012 1.4922-5.5 0.99389-1.4966 2.1943-2.7882 3.6035-3.873 1.4075-1.0848 2.8173-2.2709 4.2266-3.5625 1.4078-1.2894 2.6096-3.1216 3.6035-5.498 0.99458-2.3738 1.4922-5.3157 1.4922-8.8281 0-3.509-0.49761-6.4493-1.4922-8.8262-0.99388-2.3743-2.1957-4.2084-3.6035-5.5-1.4089-1.289-2.8187-2.4776-4.2266-3.5625-1.4089-1.0848-2.6096-2.3723-3.6035-3.8711-0.99458-1.4962-1.4922-3.3329-1.4922-5.5 0-2.7878 0.78385-5.1362 2.3594-7.0488 1.5734-1.9096 3.4366-2.8633 5.5938-2.8633z"/>
</svg>
