<svg width="426.67" height="426.67" version="1.1" viewBox="0 0 384.01 384.01" xml:space="preserve" xmlns="http://www.w3.org/2000/svg"><path d="m93.419 31.863c-17.801 0.04206-35.61 0.23572-53.399 0.11953-20.536 1.6026-12.823 28.12-16.414 42.316 2.2623 10.988-9.6527 35.014 1.7666 37.635h338.4c-0.53333-10.9-1.0663-21.799-1.5996-32.699 2.1642-15.599-14.08-16.15-25.098-15.3-49.671-0.26165-99.378 0.55469-149.02-0.47109-18.963-1.7478-25.389-24.221-41.273-30.813-17.763-0.72081-35.557-0.82956-53.358-0.7875zm274.33 95.977c-0.56463 0.0117-1.1244 0.0429-1.6752 0.0932-117.11 0.0706-234.22-0.14022-351.33 0.10722-16.699-0.58643-15.383 17.67-13.838 29.37 4.3181 59.369 8.2359 118.78 12.806 178.12 0.39688 16.128 17.504 17.288 29.654 16.402 103.46-0.0706 206.93 0.14194 310.39-0.10547 15.685 0.81163 18.635-16.142 18.429-28.375 3.922-60.439 7.9417-120.87 11.802-181.32 1.8255-10.254-7.778-14.471-16.247-14.296zm-96.977 12.707h32.235v49.052h49.052v32.235h-49.052v49.052h-32.235v-49.052h-49.052v-32.235h49.052z"/></svg>
