<svg width="512px" height="512px" enable-background="new 0 0 512 512" version="1.1" viewBox="0 0 512 512" xml:space="preserve" xmlns="http://www.w3.org/2000/svg">
<path d="m459.23 60.687h-71.955c-1.121-17.642-15.631-31.657-33.553-31.657h-192.06c-17.921 0-32.441 14.015-33.553 31.657h-63.537c-18.647 0-33.767 15.12-33.767 33.768v8.442c0 18.648 15.12 33.768 33.767 33.768h21.04v342.11c0 13.784 11.179 24.963 24.963 24.963h309c13.784 0 24.964-11.179 24.964-24.963v-342.11h14.691c18.663 0 33.768-15.12 33.768-33.768v-8.442c-1e-3 -18.648-15.105-33.768-33.769-33.768zm-262.56 383.04c0 12.58-10.197 22.803-22.802 22.803-12.598 0-22.803-10.223-22.803-22.803v-284.9c0-12.597 10.205-22.802 22.803-22.802 12.605 0 22.802 10.206 22.802 22.802v284.9zm91.213 0c0 12.58-10.205 22.803-22.803 22.803s-22.803-10.223-22.803-22.803v-284.9c0-12.597 10.205-22.802 22.803-22.802s22.803 10.206 22.803 22.802v284.9zm91.212 0c0 12.58-10.205 22.803-22.803 22.803-12.613 0-22.803-10.223-22.803-22.803v-284.9c0-12.597 10.189-22.802 22.803-22.802 12.598 0 22.803 10.206 22.803 22.802v284.9z"/>
</svg>
