<svg width="512" height="512" enable-background="new 0 0 512 512" version="1.1" viewBox="0 0 512 512" xml:space="preserve" xmlns="http://www.w3.org/2000/svg">
<path d="m320 64c-40.938 0-78.531 19.344-102.34 51.062-8.406-2.032-16.968-3.0625-25.656-3.0625-61.75 0-112 50.25-112 112 0 1.563 0.03075 3.094 0.09375 4.625-46.281 13.75-80.094 56.688-80.094 107.38 0 61.75 50.25 112 112 112h272c70.594 0 128-57.406 128-128 0-46.656-25.656-88.812-65.156-111.12 0.781-5.562 1.1562-11.219 1.1562-16.875 0-70.563-57.406-128-128-128zm0 32c53.031 0 96 42.969 96 96 0 12.625-2.5942 24.624-7.0312 35.688 40.844 11.062 71.031 48 71.031 92.312 0 53.031-42.969 96-96 96h-272c-44.188 0-80-35.813-80-80s35.813-80 80-80c2.438 0 4.75 0.49975 7.125 0.71875-4.5-10-7.125-21.031-7.125-32.719 0-44.188 35.813-80 80-80 14.438 0 27.813 4.1245 39.5 10.812 14.5-34.563 48.656-58.812 88.5-58.812zm-64 96-96 96h64v96h64v-96h64z"/>
</svg>
