<svg width="420" height="384" version="1.1" viewBox="0 0 420 384" xml:space="preserve" xmlns="http://www.w3.org/2000/svg">
<path d="m88.697 0c-12.399 0.0011182-22.697 10.601-22.697 23.9v335.2c0 13.4 10.299 24.9 22.699 24.9h243.1c12.4 0 22.199-11.5 22.199-24.9v-244.1c0-3.6-0.50038-7.0994-1.9004-10.199-0.9-2.2-2-4.3016-3.5-6.1016l-83.799-91.699c-1.9-2.1-4.2012-3.6004-6.7012-4.9004-2.9-1.5-6.1-2.0996-9.5-2.0996h-159.9-0.001953zm159.3 35.801 71.199 77.299h-60.1c-5.6 0-11.1-5.1986-11.1-11.299v-66zm-96.129 116.47c18.927 0.69726 126.08 63.094 126.08 74.383-2e-5 11.844-117.96 79.945-128.21 74.023-10.257-5.9219-10.257-142.12 0-148.05 0.4808-0.27759 1.2-0.39366 2.1309-0.35937z"/>
</svg>
